<mxfile host="app.diagrams.net" agent="Mozilla/5.0 (Windows NT 10.0; Win64; x64) AppleWebKit/537.36 (KHTML, like Gecko) Chrome/137.0.0.0 Safari/537.36" version="27.1.5">
  <diagram name="Page-1" id="bMhxo-1cMIKOIfw-TP1m">
    <mxGraphModel dx="1111" dy="439" grid="1" gridSize="10" guides="1" tooltips="1" connect="1" arrows="0" fold="1" page="1" pageScale="1" pageWidth="1700" pageHeight="1100" math="0" shadow="0">
      <root>
        <mxCell id="0" />
        <mxCell id="1" parent="0" />
        <mxCell id="dHtpnSjfdlavK5XvMbLB-1" value="&lt;font style=&quot;font-size: 14px;&quot;&gt;ex:AIImpactDatase&lt;/font&gt;t" style="ellipse;whiteSpace=wrap;html=1;" vertex="1" parent="1">
          <mxGeometry x="520" y="310" width="160" height="50" as="geometry" />
        </mxCell>
        <mxCell id="dHtpnSjfdlavK5XvMbLB-2" value="&lt;font style=&quot;font-size: 14px;&quot;&gt;ex:AIImpactStructure&lt;/font&gt;" style="ellipse;whiteSpace=wrap;html=1;" vertex="1" parent="1">
          <mxGeometry x="300" y="310" width="160" height="50" as="geometry" />
        </mxCell>
        <mxCell id="dHtpnSjfdlavK5XvMbLB-4" value="&lt;font style=&quot;font-size: 14px;&quot;&gt;ex:refCountry&lt;/font&gt;" style="ellipse;whiteSpace=wrap;html=1;" vertex="1" parent="1">
          <mxGeometry x="520" y="200" width="160" height="50" as="geometry" />
        </mxCell>
        <mxCell id="dHtpnSjfdlavK5XvMbLB-5" value="&lt;font style=&quot;font-size: 14px;&quot;&gt;ex:refYea&lt;/font&gt;r" style="ellipse;whiteSpace=wrap;html=1;" vertex="1" parent="1">
          <mxGeometry x="50" y="310" width="160" height="50" as="geometry" />
        </mxCell>
        <mxCell id="dHtpnSjfdlavK5XvMbLB-6" value="&lt;font style=&quot;font-size: 14px;&quot;&gt;ex:refIndustry&lt;/font&gt;" style="ellipse;whiteSpace=wrap;html=1;" vertex="1" parent="1">
          <mxGeometry x="60" y="430" width="160" height="50" as="geometry" />
        </mxCell>
        <mxCell id="dHtpnSjfdlavK5XvMbLB-7" value="&lt;font style=&quot;font-size: 14px;&quot;&gt;ex:aiAdoptionRate&lt;/font&gt;" style="ellipse;whiteSpace=wrap;html=1;" vertex="1" parent="1">
          <mxGeometry x="50" y="200" width="160" height="50" as="geometry" />
        </mxCell>
        <mxCell id="dHtpnSjfdlavK5XvMbLB-8" value="" style="endArrow=classic;html=1;rounded=0;entryX=1;entryY=0.5;entryDx=0;entryDy=0;exitX=0;exitY=0.5;exitDx=0;exitDy=0;" edge="1" parent="1" source="dHtpnSjfdlavK5XvMbLB-1" target="dHtpnSjfdlavK5XvMbLB-2">
          <mxGeometry width="50" height="50" relative="1" as="geometry">
            <mxPoint x="270" y="130" as="sourcePoint" />
            <mxPoint x="250" y="30" as="targetPoint" />
          </mxGeometry>
        </mxCell>
        <mxCell id="dHtpnSjfdlavK5XvMbLB-9" value="" style="endArrow=classic;html=1;rounded=0;entryX=0;entryY=0.5;entryDx=0;entryDy=0;exitX=0.619;exitY=0.08;exitDx=0;exitDy=0;exitPerimeter=0;" edge="1" parent="1" source="dHtpnSjfdlavK5XvMbLB-2" target="dHtpnSjfdlavK5XvMbLB-4">
          <mxGeometry width="50" height="50" relative="1" as="geometry">
            <mxPoint x="398.96" y="302" as="sourcePoint" />
            <mxPoint x="459.99999999999994" y="250" as="targetPoint" />
            <Array as="points">
              <mxPoint x="399" y="225" />
            </Array>
          </mxGeometry>
        </mxCell>
        <mxCell id="dHtpnSjfdlavK5XvMbLB-10" value="" style="endArrow=classic;html=1;rounded=0;exitX=0.231;exitY=0.14;exitDx=0;exitDy=0;exitPerimeter=0;entryX=1;entryY=0.5;entryDx=0;entryDy=0;" edge="1" parent="1" source="dHtpnSjfdlavK5XvMbLB-2" target="dHtpnSjfdlavK5XvMbLB-7">
          <mxGeometry width="50" height="50" relative="1" as="geometry">
            <mxPoint x="470" y="190" as="sourcePoint" />
            <mxPoint x="209" y="219" as="targetPoint" />
            <Array as="points">
              <mxPoint x="337" y="225" />
            </Array>
          </mxGeometry>
        </mxCell>
        <mxCell id="dHtpnSjfdlavK5XvMbLB-11" value="" style="endArrow=classic;html=1;rounded=0;entryX=1;entryY=0.5;entryDx=0;entryDy=0;exitX=0;exitY=0.5;exitDx=0;exitDy=0;" edge="1" parent="1" source="dHtpnSjfdlavK5XvMbLB-2">
          <mxGeometry width="50" height="50" relative="1" as="geometry">
            <mxPoint x="280" y="334.5" as="sourcePoint" />
            <mxPoint x="210" y="334.5" as="targetPoint" />
          </mxGeometry>
        </mxCell>
        <mxCell id="dHtpnSjfdlavK5XvMbLB-13" value="" style="endArrow=classic;html=1;rounded=0;entryX=1;entryY=0.5;entryDx=0;entryDy=0;" edge="1" parent="1" target="dHtpnSjfdlavK5XvMbLB-6">
          <mxGeometry width="50" height="50" relative="1" as="geometry">
            <mxPoint x="340" y="359" as="sourcePoint" />
            <mxPoint x="270" y="400" as="targetPoint" />
            <Array as="points">
              <mxPoint x="340" y="455" />
            </Array>
          </mxGeometry>
        </mxCell>
        <mxCell id="dHtpnSjfdlavK5XvMbLB-14" value="&lt;b&gt;TBox&lt;/b&gt;" style="rounded=0;whiteSpace=wrap;html=1;" vertex="1" parent="1">
          <mxGeometry x="60" y="500" width="70" height="30" as="geometry" />
        </mxCell>
        <mxCell id="dHtpnSjfdlavK5XvMbLB-15" value="" style="endArrow=none;dashed=1;html=1;rounded=0;fillColor=#FF0000;" edge="1" parent="1">
          <mxGeometry width="50" height="50" relative="1" as="geometry">
            <mxPoint x="50" y="570" as="sourcePoint" />
            <mxPoint x="720" y="560" as="targetPoint" />
          </mxGeometry>
        </mxCell>
      </root>
    </mxGraphModel>
  </diagram>
</mxfile>
